# xmcd CD database file
#
# Track frame offsets:
#	187
#	20475
#	42182
#	63925
#	89047
#	107137
#	124787
#	143200
#	163852
#	183137
#
# Disc length: 2694 seconds
#
# Revision: 0
# Processed by: cddbd v1.5.1PL0 Copyright (c) Steve Scherf et al.
# Submitted via: CDex 1.51
#
DISCID=870a840a
DTITLE=荻野目洋子 - TRUST Me
DYEAR=1900
DGENRE=JPop
TTITLE0=わかって
TTITLE1=MOONLIGHT BLUE
TTITLE2=PRELUDE TO "A" KISS
TTITLE3=BECAUSE
TTITLE4=雨の石
TTITLE5=C'EST LA VIE
TTITLE6=LANA
TTITLE7=ひまわり
TTITLE8=素直な恋
TTITLE9=美女と野獣
EXTD=
EXTT0=
EXTT1=
EXTT2=
EXTT3=
EXTT4=
EXTT5=
EXTT6=
EXTT7=
EXTT8=
EXTT9=
PLAYORDER=
